<?xml version="1.0" standalone="no"?>
<!DOCTYPE svg PUBLIC "-//W3C//DTD SVG 20010904//EN"
 "http://www.w3.org/TR/2001/REC-SVG-20010904/DTD/svg10.dtd">
<svg version="1.0" xmlns="http://www.w3.org/2000/svg"
 width="900.000000pt" height="900.000000pt" viewBox="0 0 900.000000 900.000000"
 preserveAspectRatio="xMidYMid meet">
<metadata>
Created by potrace 1.14, written by Peter Selinger 2001-2017
</metadata>
<g transform="translate(0.000000,900.000000) scale(0.100000,-0.100000)"
fill="#000000" stroke="none">
<path d="M4348 8785 c-2 -2 -43 -6 -93 -9 -106 -8 -124 -11 -270 -36 -155 -28
-161 -29 -190 -40 -14 -5 -25 -7 -25 -5 0 2 -11 0 -25 -5 -14 -5 -36 -12 -48
-14 -44 -8 -270 -88 -375 -132 -260 -111 -566 -300 -769 -476 -91 -78 -324
-321 -388 -403 -38 -49 -72 -92 -75 -95 -13 -12 -112 -164 -167 -255 -110
-183 -196 -372 -266 -585 -44 -130 -109 -401 -122 -505 -3 -27 -7 -50 -8 -51
-1 -1 -54 -19 -117 -39 -650 -208 -1116 -777 -1187 -1450 -13 -123 -5 -437 12
-465 2 -3 6 -21 9 -40 14 -87 47 -200 90 -310 149 -384 442 -707 808 -893 120
-61 155 -76 263 -110 90 -29 144 -43 195 -51 19 -3 44 -7 55 -10 78 -16 234
-20 870 -21 545 -1 735 2 783 11 229 46 375 275 328 514 -12 62 -64 155 -116
207 -55 55 -150 107 -220 119 -25 4 -367 9 -760 10 -765 1 -770 2 -909 53
-256 96 -477 347 -530 603 -6 29 -14 64 -16 78 -8 37 -8 200 -1 240 47 251
162 440 352 576 134 96 284 147 464 158 58 4 123 12 145 17 140 38 260 156
298 296 9 32 18 119 22 198 3 77 7 147 10 155 2 8 6 42 10 75 14 134 88 391
156 545 53 120 96 197 184 330 290 439 739 757 1250 887 118 30 107 27 245 48
141 22 448 22 559 0 13 -2 42 -7 65 -9 110 -14 310 -70 451 -126 564 -225
1005 -679 1217 -1255 37 -100 67 -152 118 -204 76 -77 174 -120 283 -126 171
-8 323 79 404 231 68 128 62 265 -20 464 -6 14 -11 27 -12 30 -7 23 -48 114
-92 203 -344 701 -952 1240 -1703 1507 -54 20 -262 80 -293 85 -17 3 -48 10
-67 15 -43 11 -76 17 -160 30 -36 5 -76 12 -90 14 -75 14 -521 31 -532 21z"/>
<path d="M8270 6206 c-155 -32 -288 -158 -328 -311 -6 -22 -13 -77 -16 -121
-9 -131 -48 -215 -134 -296 -59 -55 -127 -91 -202 -107 -39 -8 -325 -13 -970
-14 -503 -2 -922 -5 -930 -8 -8 -3 -33 -11 -55 -19 -43 -14 -79 -34 -109 -62
-11 -10 -23 -18 -27 -18 -4 0 -28 -27 -52 -60 -41 -54 -68 -113 -83 -181 -6
-29 -6 -124 1 -160 30 -162 160 -298 325 -339 32 -8 321 -10 1025 -7 1061 4
976 0 1160 51 43 11 72 23 175 69 183 82 375 243 502 422 84 119 180 330 203
450 21 106 27 162 30 254 3 114 -15 188 -62 264 -95 151 -276 228 -453 193z"/>
<path d="M3955 5340 c-84 -24 -122 -46 -181 -105 -132 -132 -166 -324 -86
-494 31 -65 119 -159 180 -190 71 -36 159 -54 237 -48 85 7 138 25 208 71 66
44 87 66 131 140 97 162 70 378 -66 516 -110 111 -271 153 -423 110z"/>
<path d="M4390 3629 c-114 -31 -218 -115 -270 -219 -34 -69 -41 -98 -45 -183
-7 -147 63 -284 188 -368 118 -78 -16 -73 1737 -74 1425 -1 1570 -3 1620 -18
62 -18 131 -59 178 -105 39 -39 96 -127 107 -167 4 -16 10 -37 12 -45 3 -8 6
-43 8 -77 7 -119 -44 -242 -133 -326 -80 -74 -181 -114 -297 -118 -115 -4
-209 -43 -290 -120 -171 -162 -179 -428 -17 -601 53 -57 105 -90 185 -117 47
-17 77 -19 179 -16 115 3 144 6 208 21 14 3 34 8 45 10 56 11 190 61 270 101
132 66 228 136 335 243 193 193 316 435 363 715 13 73 15 300 4 365 -39 228
-110 408 -226 571 -214 299 -540 492 -901 535 -36 4 -771 8 -1634 8 -1397 1
-1574 -1 -1626 -15z"/>
<path d="M1450 1927 c-3 -3 -22 -7 -43 -10 -48 -6 -139 -51 -183 -89 -216
-190 -192 -535 48 -689 236 -152 556 -37 638 230 49 158 10 321 -105 435 -47
47 -136 100 -188 113 -34 8 -161 16 -167 10z"/>
<path d="M3095 1911 c-136 -40 -240 -141 -286 -278 -32 -97 -24 -223 20 -315
52 -109 140 -187 258 -227 56 -19 92 -19 1194 -20 1238 -1 1186 1 1287 -58
135 -78 209 -203 217 -372 7 -124 44 -215 123 -298 166 -173 450 -171 619 6
49 51 99 145 110 206 19 112 -4 327 -54 485 -84 267 -288 533 -525 684 -140
89 -321 162 -453 182 -22 3 -60 10 -85 14 -25 5 -567 9 -1205 9 -1076 0 -1164
-2 -1220 -18z"/>
</g>
</svg>
